<svg id="visual" viewBox="0 0 960 540" width="960" height="540" xmlns="http://www.w3.org/2000/svg" xmlns:xlink="http://www.w3.org/1999/xlink" version="1.1"><path d="M0 226L26.7 229.5C53.3 233 106.7 240 160 265.3C213.3 290.7 266.7 334.3 320 340.8C373.3 347.3 426.7 316.7 480 302.5C533.3 288.3 586.7 290.7 640 304C693.3 317.3 746.7 341.7 800 342.3C853.3 343 906.7 320 933.3 308.5L960 297L960 541L933.3 541C906.7 541 853.3 541 800 541C746.7 541 693.3 541 640 541C586.7 541 533.3 541 480 541C426.7 541 373.3 541 320 541C266.7 541 213.3 541 160 541C106.7 541 53.3 541 26.7 541L0 541Z" fill="#64a7ff"></path><path d="M0 302L26.7 312.8C53.3 323.7 106.7 345.3 160 363.7C213.3 382 266.7 397 320 386.5C373.3 376 426.7 340 480 341.8C533.3 343.7 586.7 383.3 640 390C693.3 396.7 746.7 370.3 800 376.2C853.3 382 906.7 420 933.3 439L960 458L960 541L933.3 541C906.7 541 853.3 541 800 541C746.7 541 693.3 541 640 541C586.7 541 533.3 541 480 541C426.7 541 373.3 541 320 541C266.7 541 213.3 541 160 541C106.7 541 53.3 541 26.7 541L0 541Z" fill="#7e99f6"></path><path d="M0 333L26.7 343.2C53.3 353.3 106.7 373.7 160 386C213.3 398.3 266.7 402.7 320 415.3C373.3 428 426.7 449 480 455C533.3 461 586.7 452 640 434.2C693.3 416.3 746.7 389.7 800 372.8C853.3 356 906.7 349 933.3 345.5L960 342L960 541L933.3 541C906.7 541 853.3 541 800 541C746.7 541 693.3 541 640 541C586.7 541 533.3 541 480 541C426.7 541 373.3 541 320 541C266.7 541 213.3 541 160 541C106.7 541 53.3 541 26.7 541L0 541Z" fill="#958bea"></path><path d="M0 399L26.7 416.2C53.3 433.3 106.7 467.7 160 468.7C213.3 469.7 266.7 437.3 320 420.3C373.3 403.3 426.7 401.7 480 400.3C533.3 399 586.7 398 640 409.2C693.3 420.3 746.7 443.7 800 459C853.3 474.3 906.7 481.7 933.3 485.3L960 489L960 541L933.3 541C906.7 541 853.3 541 800 541C746.7 541 693.3 541 640 541C586.7 541 533.3 541 480 541C426.7 541 373.3 541 320 541C266.7 541 213.3 541 160 541C106.7 541 53.3 541 26.7 541L0 541Z" fill="#a97bda"></path><path d="M0 537L26.7 532.8C53.3 528.7 106.7 520.3 160 519.2C213.3 518 266.7 524 320 526.3C373.3 528.7 426.7 527.3 480 526.5C533.3 525.7 586.7 525.3 640 525.3C693.3 525.3 746.7 525.7 800 522C853.3 518.3 906.7 510.7 933.3 506.8L960 503L960 541L933.3 541C906.7 541 853.3 541 800 541C746.7 541 693.3 541 640 541C586.7 541 533.3 541 480 541C426.7 541 373.3 541 320 541C266.7 541 213.3 541 160 541C106.7 541 53.3 541 26.7 541L0 541Z" fill="#b96bc6"></path></svg>